<?xml version="1.0" standalone="no"?>
<!DOCTYPE svg PUBLIC "-//W3C//DTD SVG 20010904//EN"
 "http://www.w3.org/TR/2001/REC-SVG-20010904/DTD/svg10.dtd">
<svg version="1.0" xmlns="http://www.w3.org/2000/svg"
 width="300.000000pt" height="300.000000pt" viewBox="0 0 300.000000 300.000000"
 preserveAspectRatio="xMidYMid meet">
<metadata>
Created by potrace 1.10, written by Peter Selinger 2001-2011
</metadata>
<g transform="translate(0.000000,300.000000) scale(0.100000,-0.100000)"
fill="#000000" stroke="none">
<path d="M585 2958 c-11 -6 -21 -12 -23 -13 -3 -3 63 -141 75 -158 5 -7 17
-31 27 -54 18 -42 18 -43 -3 -97 -21 -50 -21 -56 -7 -84 9 -17 20 -32 25 -34
5 -1 42 -72 83 -156 40 -84 68 -150 62 -148 -18 7 -22 -70 -7 -127 10 -40 10
-59 -1 -106 -12 -51 -11 -62 3 -92 31 -66 53 -138 46 -157 -4 -15 3 -25 28
-41 47 -29 72 -26 103 9 15 16 35 32 44 35 10 3 21 16 24 28 5 18 8 20 16 7 5
-8 10 -32 10 -53 0 -23 4 -36 10 -32 6 3 10 17 10 29 0 13 6 29 14 35 12 10
10 16 -10 36 -14 14 -27 25 -29 25 -2 0 -16 -12 -30 -27 -20 -22 -25 -24 -25
-10 0 9 -5 17 -11 17 -5 0 -8 -4 -4 -9 9 -16 -17 -61 -36 -61 -10 0 -24 10
-30 22 -8 14 -14 18 -17 10 -2 -6 -8 -12 -14 -12 -6 0 -6 6 2 15 10 12 4 32
-34 109 -36 74 -45 101 -40 125 9 45 24 49 24 7 l0 -36 46 0 47 0 -27 21 c-37
29 -47 51 -37 85 l9 29 12 -33 c8 -21 17 -31 26 -28 23 9 16 -10 -8 -21 -22
-10 -22 -11 11 -18 24 -5 36 -3 42 6 13 20 12 23 -21 64 -16 21 -30 48 -30 61
0 31 -17 40 -25 13 -4 -12 -16 -37 -27 -56 -17 -28 -23 -31 -35 -21 -11 9 -14
24 -10 52 3 22 1 48 -4 57 -6 11 -5 20 1 24 5 3 10 1 10 -4 0 -14 30 -14 50
-1 13 8 11 11 -7 16 -13 4 -23 9 -24 13 -4 31 -10 47 -24 57 -10 7 -12 13 -5
16 6 2 2 12 -10 25 -11 13 -20 25 -20 28 1 28 -2 35 -17 35 -16 1 -16 2 1 15
16 12 17 15 4 15 -13 0 -27 17 -32 40 -1 3 -7 15 -14 28 -7 12 -10 26 -7 31 3
5 -1 12 -7 15 -9 3 -6 11 11 25 13 12 19 21 13 21 -5 0 -15 -7 -22 -15 -14
-17 -40 -20 -40 -4 0 5 15 24 33 40 l32 30 -30 -11 c-16 -6 -35 -16 -42 -22
-8 -6 -16 -8 -20 -5 -8 8 31 90 51 106 13 11 12 18 -8 64 -66 145 -101 217
-106 217 -3 0 -14 -6 -25 -12z"/>
<path d="M1456 2896 c-33 -10 -62 -27 -92 -58 -41 -40 -46 -51 -59 -123 -8
-44 -19 -118 -25 -165 -10 -79 -9 -86 9 -101 11 -9 21 -27 24 -40 4 -23 4 -23
6 3 1 26 4 27 46 26 43 0 45 -2 56 -38 24 -81 -15 -148 -124 -213 -52 -31 -55
-35 -35 -40 13 -4 24 -6 26 -7 1 0 17 -7 35 -17 17 -9 41 -18 52 -20 31 -6
107 -3 119 5 6 4 46 7 88 7 62 1 81 5 98 20 12 11 24 19 26 17 4 -2 85 48 94
59 3 3 19 10 35 16 30 10 29 10 -20 17 -82 12 -180 83 -160 116 8 13 45 13 45
0 0 -7 6 -7 18 -1 24 13 47 151 46 273 0 74 -5 94 -30 145 -22 45 -38 63 -69
78 -22 11 -46 28 -53 38 -16 21 -83 22 -156 3z m99 -68 c4 -11 21 -44 38 -72
61 -104 77 -135 69 -139 -4 -3 -30 -8 -58 -12 l-51 -6 -42 50 c-24 28 -48 51
-54 51 -7 0 -5 -5 3 -10 12 -8 11 -10 -6 -10 -11 0 -34 -16 -51 -35 -17 -19
-39 -35 -48 -35 -14 0 -16 6 -10 37 7 39 19 53 45 52 10 0 8 -3 -5 -9 -20 -8
-20 -9 1 -9 26 -1 50 18 59 47 5 19 2 23 -24 28 -36 8 -36 7 -14 41 34 51 135
73 148 31z m111 -25 c13 -17 14 -17 7 2 -6 18 -5 18 10 6 10 -8 15 -16 13 -19
-3 -2 2 -21 10 -40 15 -36 11 -92 -6 -92 -14 0 -50 57 -50 79 0 14 -6 21 -20
21 -23 0 -25 12 -8 40 16 25 27 25 44 3z m-252 -62 c3 -4 -6 -13 -20 -20 -34
-15 -36 -14 -24 9 11 21 35 27 44 11z m51 -81 c3 -5 -3 -10 -15 -10 -11 0 -23
-7 -27 -15 -8 -24 7 -32 21 -12 17 23 30 22 23 -2 -3 -13 -1 -18 9 -14 7 2 10
12 7 20 -4 11 -2 14 5 9 16 -10 15 -27 -4 -65 -19 -38 -13 -52 6 -16 18 33 48
33 56 -1 5 -18 10 -22 17 -15 15 15 57 14 57 -1 0 -7 -17 -29 -37 -50 -45 -46
-23 -52 24 -6 21 20 33 27 33 17 0 -12 2 -12 10 1 7 11 10 12 10 2 0 -7 6 -20
14 -28 12 -12 16 -8 29 29 10 26 16 34 16 21 1 -12 -6 -41 -14 -64 -8 -23 -12
-47 -8 -54 3 -6 3 -8 -2 -4 -4 4 -14 3 -22 -4 -11 -9 -12 -6 -3 16 5 15 10 30
10 34 -1 10 -54 -91 -55 -103 0 -5 -13 -12 -29 -15 -16 -3 -31 -11 -34 -19 -3
-10 0 -12 13 -8 50 20 63 19 67 -4 2 -13 16 -29 36 -38 27 -13 31 -20 27 -40
-6 -24 -6 -24 19 -8 14 10 33 17 43 17 13 0 8 -6 -14 -19 -17 -11 -36 -28 -42
-38 -9 -16 -10 -16 -11 -1 0 11 -6 15 -20 11 -11 -3 -17 -10 -14 -15 9 -14
-27 -37 -58 -38 -16 0 -28 3 -28 8 0 4 -27 7 -59 7 -33 0 -54 -3 -48 -7 6 -4
9 -9 7 -12 -8 -8 -79 -11 -86 -3 -12 12 19 39 39 33 15 -4 17 -2 9 6 -9 9 -18
8 -38 -1 -15 -6 -29 -9 -32 -6 -3 2 -11 0 -18 -6 -9 -7 -21 -6 -41 5 -30 16
-26 19 23 16 22 -1 33 4 38 17 6 15 8 15 16 3 8 -12 10 -10 10 9 0 19 4 23 24
19 14 -3 31 -1 38 3 9 6 4 9 -14 9 -32 0 -32 23 1 46 15 11 19 19 12 27 -5 7
-6 30 -2 54 5 26 4 46 -2 52 -8 8 -2 11 19 12 21 1 23 3 8 6 -12 2 -32 15 -45
29 -24 26 -49 32 -50 12 0 -7 -5 -1 -11 15 -12 32 -23 34 -38 7 -20 -37 -31
-11 -26 57 7 84 16 94 16 17 1 -54 2 -57 16 -39 8 11 12 25 10 32 -6 14 30 38
37 25 2 -4 2 -1 0 7 -2 7 6 28 18 47 20 34 42 43 54 24z m255 -55 c0 -38 -20
-73 -47 -80 -33 -8 -40 0 -19 20 9 9 16 25 16 35 0 32 11 50 31 50 13 0 19 -7
19 -25z m-85 -35 c-26 -11 -62 -12 -69 -2 -2 4 17 8 42 9 34 1 41 -1 27 -7z"/>
<path d="M1513 2743 c-7 -2 -13 -9 -13 -14 0 -13 20 -11 55 6 l30 13 -30 0
c-16 0 -36 -2 -42 -5z"/>
<path d="M1527 2713 c-17 -16 -6 -30 21 -26 21 4 24 2 12 -6 -12 -8 -8 -11 17
-11 45 0 48 14 7 33 -38 19 -47 20 -57 10z"/>
<path d="M1466 2266 l-29 -13 26 -5 c27 -5 57 7 57 22 0 13 -18 11 -54 -4z"/>
<path d="M1557 2266 c-7 -18 15 -20 48 -6 16 7 17 9 3 9 -9 1 -23 4 -31 7 -8
3 -17 -2 -20 -10z"/>
<path d="M1565 2215 c-27 -8 -51 -14 -53 -15 -2 0 0 5 3 10 3 6 -6 4 -22 -2
l-28 -13 30 -3 c17 -2 57 6 90 17 69 22 54 26 -20 6z"/>
<path d="M743 2743 c-9 -3 -10 -9 -1 -23 10 -15 9 -26 -5 -55 -19 -41 -20 -45
-9 -45 5 0 15 19 23 42 l13 41 63 -132 c34 -73 67 -130 72 -127 5 4 13 1 17
-5 3 -6 1 -15 -6 -19 -9 -5 -5 -20 14 -56 14 -27 25 -45 26 -41 0 5 -5 17 -11
28 -15 28 -20 61 -8 54 5 -4 9 -12 9 -18 0 -7 23 -61 50 -121 55 -121 55 -120
38 -110 -7 5 -8 3 -4 -5 5 -7 11 -10 14 -7 3 4 29 -37 57 -89 28 -53 54 -92
58 -89 4 4 7 1 7 -6 0 -7 16 -28 36 -46 39 -37 32 -46 -10 -13 -14 11 -26 19
-26 16 0 -2 20 -39 45 -83 25 -43 48 -87 51 -98 4 -11 17 -29 30 -41 13 -12
24 -25 24 -29 0 -3 8 -15 18 -26 9 -11 25 -43 34 -71 20 -59 12 -94 -27 -109
-29 -11 -49 -53 -39 -84 6 -19 5 -20 -11 -6 -17 14 -17 14 -4 -8 12 -21 12
-24 -3 -33 -10 -6 -18 -15 -18 -21 0 -9 3 -9 12 0 7 7 20 12 30 12 27 0 33 27
13 50 -25 27 -7 70 29 70 57 0 66 59 26 170 -17 47 -34 92 -37 102 -5 17 2 22
112 78 76 38 116 38 230 1 69 -22 91 -33 93 -48 2 -11 -16 -67 -39 -124 -38
-93 -64 -219 -45 -219 3 0 28 14 55 30 46 29 50 35 75 113 30 94 35 151 12
127 -19 -20 -56 -118 -50 -134 3 -7 -1 -18 -9 -24 -8 -7 -12 -22 -10 -35 4
-17 -2 -26 -22 -35 -14 -7 -28 -12 -30 -12 -16 0 1 78 35 161 22 54 40 107 40
119 0 11 9 31 21 43 11 12 25 31 30 42 8 15 5 14 -9 -4 -16 -20 -25 -23 -55
-17 -19 4 -37 11 -39 17 -2 5 -13 11 -26 12 -25 2 -27 12 -7 47 19 34 20 56 1
38 -7 -7 -12 -18 -10 -23 3 -6 -2 -19 -9 -29 -14 -18 -16 -19 -56 -3 -58 24
-110 21 -167 -8 -48 -25 -82 -26 -68 -4 4 7 3 9 -4 5 -6 -4 -12 4 -14 21 -2
22 -5 24 -10 11 -5 -12 2 -28 20 -50 15 -18 22 -29 16 -25 -6 3 -20 -2 -31
-13 -12 -10 -24 -16 -29 -12 -4 4 -4 1 0 -5 4 -8 1 -13 -8 -13 -13 0 -14 -5
-5 -26 5 -15 7 -30 3 -33 -9 -9 -33 29 -28 44 3 7 0 16 -7 21 -9 5 -10 2 -5
-11 5 -14 4 -16 -8 -6 -7 6 -17 26 -20 44 -37 196 -40 269 -13 310 17 27 18
27 48 11 l31 -16 -30 -31 c-33 -35 -52 -76 -51 -110 0 -16 7 -10 22 24 12 25
32 59 45 77 21 28 24 30 47 18 21 -11 37 -11 92 1 59 12 77 12 143 -2 197 -40
260 -83 260 -175 0 -27 5 -52 10 -55 13 -8 13 -52 0 -60 -18 -11 1 -126 46
-271 24 -78 44 -147 44 -153 0 -5 23 -58 51 -116 28 -58 59 -129 69 -158 10
-28 23 -52 29 -51 45 4 44 3 27 20 -9 8 -16 24 -16 34 0 11 -9 24 -20 30 -25
14 -18 30 49 116 38 49 52 62 48 44 -12 -59 -17 -73 -29 -89 -8 -10 -4 -9 11
4 l24 20 -6 -25 c-3 -14 -13 -46 -23 -71 -18 -47 -18 -47 6 -82 15 -22 29 -33
39 -29 8 3 12 1 8 -5 -4 -6 0 -16 8 -23 25 -21 18 -47 -13 -53 -16 -3 -29 -12
-29 -19 0 -7 -4 -29 -8 -50 -6 -34 -5 -36 23 -43 16 -3 38 -16 48 -28 17 -19
17 -20 1 -8 -9 8 -20 11 -23 8 -3 -3 3 -10 15 -16 25 -14 36 1 21 30 -11 19
-10 20 12 14 33 -10 46 -24 30 -34 -11 -6 -10 -15 5 -45 14 -30 15 -39 4 -45
-10 -6 -9 -10 3 -14 10 -4 16 -18 16 -35 0 -37 -10 -46 -27 -24 -8 9 -12 12
-9 5 8 -15 -3 -43 -17 -43 -6 0 -19 8 -29 17 -18 16 -18 16 -12 -1 13 -35 -17
-12 -43 32 l-25 42 23 0 c13 0 30 4 38 9 18 12 24 48 9 57 -12 8 -40 -24 -32
-37 3 -5 1 -9 -4 -9 -6 0 -13 7 -16 16 -5 13 -9 14 -20 5 -9 -8 -16 -8 -20 -2
-4 5 -1 13 5 17 8 4 7 9 -2 16 -10 7 -8 8 7 3 15 -4 24 0 28 10 3 9 11 13 17
9 8 -4 8 0 0 15 -8 14 -21 21 -43 21 -26 0 -29 2 -18 15 7 8 9 15 6 15 -4 0 0
7 8 16 24 24 17 74 -10 74 -18 0 -19 46 -1 53 9 4 8 8 -3 16 -10 7 -11 11 -2
11 6 0 12 7 12 16 0 11 -5 14 -16 10 -9 -3 -22 -6 -30 -6 -11 0 -14 -16 -14
-65 0 -59 2 -65 20 -65 17 0 19 -5 14 -25 -3 -13 -7 -65 -8 -115 -1 -67 2 -91
12 -95 8 -3 17 -3 22 0 11 7 20 -47 20 -122 0 -56 2 -64 18 -61 12 2 18 16 22
48 4 32 10 46 23 48 12 3 17 -3 17 -22 0 -29 -16 -35 -23 -9 -3 10 -5 -9 -4
-42 2 -46 6 -60 17 -60 23 0 26 62 3 68 -17 4 -17 5 0 6 15 1 21 14 20 48 0 6
8 14 18 16 16 4 19 -1 19 -29 0 -19 -4 -34 -10 -34 -5 0 -10 -17 -10 -38 0
-21 -5 -43 -12 -50 -17 -17 3 -35 33 -30 21 3 24 9 27 48 2 24 -2 64 -8 88 -8
33 -8 47 1 58 10 12 14 12 20 2 14 -22 10 -31 -8 -17 -15 12 -16 12 -9 -6 15
-36 26 -89 26 -126 0 -52 26 -60 39 -12 10 37 5 77 -23 188 -9 33 -17 85 -19
116 -2 39 -12 71 -31 103 -29 49 -45 55 -86 31 -34 -19 -40 -18 -40 5 0 14 9
21 33 25 18 4 39 5 47 3 12 -2 15 8 15 44 -1 37 -6 52 -26 70 -21 19 -29 41
-38 104 -7 44 -14 100 -16 125 -8 112 -31 179 -81 239 -19 21 -32 54 -40 99
-13 64 -10 172 6 200 8 15 -36 68 -53 63 -7 -2 -6 2 1 10 6 8 11 29 11 48 0
90 22 292 40 355 11 38 18 71 16 73 -3 4 -125 -77 -125 -83 0 -19 26 -55 37
-51 10 4 12 -17 9 -102 -2 -59 -6 -114 -9 -122 -14 -41 -16 -72 -7 -91 10 -18
9 -19 -17 -12 -15 4 -35 7 -43 7 -12 0 -15 8 -12 31 3 16 10 33 15 37 8 5 7
14 -2 31 -8 15 -10 34 -6 48 l7 24 -21 -21 c-20 -19 -21 -27 -15 -100 l7 -80
32 4 c18 2 36 -1 40 -8 10 -15 0 -23 -33 -26 -15 -1 -34 -5 -43 -9 -14 -5 -19
5 -29 67 -27 167 -31 179 -67 219 -19 21 -43 41 -54 44 -27 9 -23 17 18 43 28
18 38 20 50 11 30 -25 56 -73 67 -122 12 -50 12 -51 25 -28 7 13 21 62 30 107
14 67 14 84 4 84 -7 0 -13 4 -13 10 0 5 -11 12 -24 16 -29 7 -66 -11 -169 -83
l-78 -54 -113 -9 c-62 -5 -129 -11 -149 -15 -29 -6 -50 -1 -103 24 -36 17 -72
31 -79 31 -8 0 -20 6 -27 13 -21 21 -109 79 -113 75 -2 -2 5 -23 16 -47 10
-24 19 -51 19 -60 0 -9 6 -40 14 -69 7 -29 10 -52 6 -52 -10 0 -51 110 -45
119 2 4 0 21 -5 37 l-10 29 5 -33 c3 -20 1 -31 -5 -27 -6 3 -10 10 -10 16 0 5
-28 68 -62 139 -59 125 -60 131 -42 144 21 16 13 31 -19 31 -16 0 -32 25 -83
135 -35 74 -74 142 -86 152 -24 19 -26 19 -45 11z m121 -199 c20 -42 36 -81
36 -88 -1 -10 -49 87 -71 142 -19 48 1 18 35 -54z m1066 -339 c0 -8 4 -15 9
-15 5 0 4 -19 -1 -42 -12 -50 -28 -72 -28 -41 0 12 -8 29 -17 39 -25 24 -24
42 0 59 27 19 37 19 37 0z m-714 -100 c14 -13 13 -16 -8 -24 -13 -6 -17 -10
-10 -10 16 -1 15 -13 -1 -35 -13 -17 -15 -16 -35 15 -19 31 -20 35 -5 51 20
22 40 23 59 3z m577 -44 c58 -61 65 -92 11 -56 -35 24 -119 54 -153 56 -13 0
70 45 89 48 3 1 26 -21 53 -48z m270 -291 c-13 -12 -105 -39 -157 -46 -47 -7
-48 -7 -37 14 7 12 15 22 19 23 9 1 27 5 87 21 35 10 57 11 73 4 12 -5 19 -13
15 -16z m-13 -77 c0 -13 -4 -21 -10 -18 -5 3 -10 13 -10 21 0 8 -4 14 -9 14
-5 0 -5 -15 -1 -34 4 -19 5 -37 3 -40 -3 -3 3 -25 12 -50 10 -25 15 -52 12
-61 -4 -8 -2 -15 4 -15 6 0 7 -5 4 -10 -3 -6 0 -13 9 -16 8 -3 13 -11 10 -18
-2 -6 7 -23 21 -36 14 -13 33 -48 41 -78 16 -52 15 -56 -7 -99 -19 -38 -55
-72 -63 -61 -1 2 -13 19 -26 38 -13 19 -28 38 -32 41 -5 3 -12 30 -17 60 -5
30 -18 81 -29 114 -47 139 -62 197 -56 206 3 6 -3 13 -15 16 -25 6 -18 23 10
23 10 0 19 3 19 8 0 4 17 8 37 10 21 1 41 6 46 11 16 16 47 0 47 -26z m230
-861 c0 -4 -10 -13 -21 -20 -23 -15 -47 -3 -35 17 8 12 56 15 56 3z"/>
<path d="M1000 2106 c0 -12 59 -124 69 -130 4 -3 -7 25 -27 62 -38 72 -42 79
-42 68z"/>
<path d="M870 1929 c0 -5 5 -7 10 -4 6 3 10 1 10 -5 0 -8 14 -9 44 -5 37 6 47
4 66 -17 22 -23 22 -23 11 -1 -6 13 -20 27 -31 33 -25 13 -110 13 -110 -1z"/>
<path d="M1477 1733 c-4 -3 -7 -15 -7 -25 0 -10 -4 -18 -10 -18 -5 0 -10 -4
-10 -9 0 -20 39 -6 43 15 4 25 -5 48 -16 37z"/>
<path d="M1050 1714 c-1 -24 -66 -74 -97 -74 -13 0 -35 12 -50 26 -30 30 -37
26 -29 -18 3 -18 6 -37 5 -41 -1 -5 10 -21 23 -35 40 -43 67 -88 83 -134 21
-59 42 -103 70 -144 24 -35 23 -66 -4 -138 -9 -23 -8 -26 14 -32 13 -3 32 -1
42 5 17 10 17 10 1 11 -14 0 -18 9 -18 38 0 49 8 57 34 35 l21 -18 -20 23
c-16 20 -17 25 -5 32 12 8 10 10 -7 10 -37 0 -30 41 10 65 17 10 38 26 44 36
7 9 21 16 30 15 10 -2 13 -1 6 1 -7 2 -9 12 -7 21 4 11 3 13 -3 5 -14 -19 -82
-63 -98 -63 -18 0 -41 34 -66 100 -10 28 -31 69 -44 91 -14 22 -23 45 -19 51
5 7 2 9 -9 5 -8 -3 -21 1 -27 9 -11 12 -7 14 24 14 20 0 36 5 36 10 0 6 6 10
14 10 8 0 17 7 20 16 3 8 10 12 16 9 6 -3 13 1 16 9 3 9 10 13 15 10 14 -8 10
19 -6 40 -15 20 -15 20 -15 0z"/>
<path d="M1581 1718 c1 -19 17 -55 18 -40 1 7 6 10 11 7 13 -8 13 1 0 26 -12
21 -30 26 -29 7z"/>
<path d="M1119 1688 c-1 -13 -1 -26 0 -30 1 -8 -15 -12 -33 -9 -5 1 -19 -8
-31 -19 -12 -12 -35 -25 -51 -30 -25 -9 -24 -9 11 -4 22 3 47 12 56 20 8 7 25
12 36 10 19 -4 21 0 21 40 0 45 -7 62 -9 22z"/>
<path d="M1252 1636 c18 -36 36 -66 40 -66 11 0 -47 123 -60 128 -7 2 2 -26
20 -62z"/>
<path d="M1306 1531 c-4 -5 -3 -17 0 -28 5 -16 4 -16 -12 2 -14 17 -16 18 -10
2 6 -18 1 -27 -37 -68 -11 -13 -16 -27 -12 -40 6 -18 19 -18 21 -1 2 20 39 82
50 82 6 0 14 7 18 15 3 8 1 15 -5 15 -6 0 -9 7 -5 15 6 16 1 20 -8 6z"/>
<path d="M1477 1533 c-11 -10 -8 -61 3 -68 6 -4 10 10 10 34 0 42 -2 46 -13
34z"/>
<path d="M1785 1443 c-16 -13 -75 -44 -130 -68 -55 -24 -94 -44 -86 -45 8 0
20 -8 27 -17 10 -14 12 -15 11 -3 -1 8 3 17 8 19 6 3 19 13 30 23 10 10 25 16
32 14 7 -3 13 -1 13 4 0 12 29 28 61 34 13 2 30 6 37 8 8 1 18 -7 23 -19 6
-18 4 -25 -11 -33 -21 -11 -24 -51 -3 -43 9 3 13 -4 13 -21 0 -26 14 -33 38
-17 10 6 11 13 1 34 -9 20 -9 30 0 41 9 11 8 24 -5 57 -23 60 -25 60 -59 32z"/>
<path d="M1223 1345 c-7 -7 -17 -15 -23 -17 -6 -2 -12 -10 -13 -18 -2 -8 -6
-21 -11 -29 -6 -9 -5 -12 5 -9 8 3 13 12 13 21 -1 9 6 19 16 22 10 3 21 13 24
22 8 21 4 24 -11 8z"/>
<path d="M1425 1341 c3 -5 -5 -11 -17 -13 -13 -2 -24 -10 -26 -19 -2 -14 3
-13 42 5 36 16 42 22 28 28 -25 10 -34 9 -27 -1z"/>
<path d="M1500 1344 c-12 -4 -14 -19 -12 -79 2 -41 7 -75 12 -75 19 0 60 20
60 30 0 5 -10 9 -22 7 -21 -2 -23 3 -26 47 -3 48 -3 49 25 43 25 -5 26 -4 10
8 -14 10 -15 14 -5 18 15 6 -20 7 -42 1z"/>
<path d="M1925 1301 c-11 -4 -37 -15 -58 -26 -34 -17 -37 -22 -31 -50 11 -52
18 -56 52 -25 18 17 20 25 12 46 -14 35 -12 42 5 20 8 -11 15 -14 15 -8 0 7 7
12 15 12 8 0 15 -4 15 -9 0 -5 -7 -11 -15 -15 -8 -3 -15 -13 -15 -22 0 -10 5
-14 15 -10 8 3 15 1 15 -4 0 -6 -8 -10 -17 -10 -17 -1 -17 -1 0 -14 10 -8 15
-20 11 -29 -3 -8 -1 -25 6 -36 9 -18 7 -23 -16 -31 -15 -6 -29 -8 -32 -6 -3 3
3 8 12 12 9 3 16 13 16 22 0 27 -34 -29 -38 -63 -2 -16 -7 -36 -11 -44 -5 -8
-1 -31 7 -54 l16 -40 8 29 c4 16 3 45 -4 66 -10 34 -9 40 8 52 23 17 26 12 44
-62 8 -35 16 -50 22 -44 7 7 5 28 -5 63 -12 38 -13 57 -5 66 22 27 27 18 54
-89 5 -22 3 -28 -9 -28 -9 0 -18 -4 -22 -9 -8 -14 16 -60 29 -56 46 13 45 7
20 104 -13 50 -33 111 -44 136 -12 26 -23 58 -25 73 -1 15 -9 41 -16 58 -11
24 -18 29 -34 25z"/>
<path d="M1271 1291 c-10 -7 -11 -9 -1 -13 10 -3 10 -9 3 -23 -8 -13 -8 -24 0
-37 9 -14 9 -23 -1 -38 -16 -26 -15 -30 7 -30 17 0 18 6 14 68 -6 85 -5 83
-22 73z"/>
<path d="M1351 1262 c-26 -18 -28 -52 -3 -52 14 0 14 2 3 9 -12 8 -12 12 -2
25 15 17 71 22 71 6 0 -12 -35 -31 -44 -23 -3 3 -6 -1 -6 -9 0 -14 5 -15 30
-5 41 16 42 53 1 59 -15 2 -38 -2 -50 -10z"/>
<path d="M1190 1236 c0 -19 4 -24 15 -19 18 6 16 34 -2 41 -8 2 -13 -6 -13
-22z"/>
<path d="M1620 1227 c-31 -15 -45 -28 -45 -42 0 -20 24 -29 26 -10 1 15 41 55
56 55 7 0 13 5 13 10 0 6 -1 10 -2 9 -2 0 -23 -10 -48 -22z"/>
<path d="M1393 1193 c-18 -7 -16 -30 3 -37 9 -3 12 -2 9 5 -4 6 1 17 11 24 15
11 16 14 4 14 -8 0 -21 -3 -27 -6z"/>
<path d="M1480 1160 c-63 -21 -54 -25 17 -9 46 11 51 10 98 -19 28 -16 68 -36
91 -42 l41 -12 37 -147 c20 -80 39 -170 43 -198 3 -29 9 -53 12 -53 3 0 19 18
34 39 16 21 53 63 83 92 29 30 54 57 54 61 0 3 -16 1 -34 -4 -19 -6 -34 -15
-33 -20 3 -13 -76 -117 -90 -118 -7 0 -15 17 -19 38 -22 128 -45 236 -54 252
-18 34 -12 41 33 34 23 -4 53 -11 65 -16 18 -6 23 -5 20 4 -3 7 -27 16 -54 20
-65 8 -173 49 -233 87 -26 17 -50 31 -52 30 -2 0 -29 -8 -59 -19z"/>
<path d="M1201 1146 c0 -16 -11 -50 -23 -75 -18 -37 -23 -65 -25 -141 -1 -52
-2 -97 -2 -99 -1 -3 -14 8 -31 24 -24 23 -30 37 -30 71 0 61 11 105 24 97 8
-4 8 -2 -1 7 -7 8 -8 22 -2 43 12 41 11 47 -2 47 -22 0 -52 -94 -53 -164 -1
-73 3 -80 94 -146 l25 -18 0 122 0 123 38 60 c40 65 43 73 27 73 -5 0 -9 -5
-7 -11 4 -19 -21 -21 -26 -2 -3 11 -5 7 -6 -11z"/>
<path d="M1810 1165 c0 -2 10 -13 21 -24 24 -22 19 -57 -6 -47 -8 3 -15 1 -15
-4 0 -6 3 -10 8 -11 4 0 19 -3 34 -5 26 -4 26 -4 15 33 -6 21 -18 43 -27 50
-15 13 -30 17 -30 8z"/>
<path d="M1340 1142 c-45 -4 -65 -22 -24 -21 16 0 47 3 69 8 34 6 36 8 15 12
-14 2 -41 3 -60 1z"/>
<path d="M1280 983 c0 -5 37 -44 83 -86 l83 -76 -4 -70 c-3 -53 -1 -71 9 -71
7 0 9 -3 6 -6 -3 -4 -3 -14 2 -23 5 -9 1 -45 -9 -86 -14 -53 -15 -73 -6 -84 9
-12 6 -13 -18 -7 -25 6 -27 5 -13 -8 12 -12 13 -24 6 -57 -6 -23 -12 -46 -15
-50 -2 -4 -9 -63 -14 -129 -6 -89 -13 -127 -25 -140 -12 -13 -13 -19 -4 -22
10 -3 10 -6 1 -12 -8 -4 -20 6 -33 28 -12 20 -31 38 -43 40 -51 11 -115 12
-131 4 -14 -8 -16 -6 -13 14 2 16 9 22 23 20 17 -2 17 0 -4 11 -21 13 -24 23
-28 91 -2 42 -10 111 -19 154 -9 42 -19 109 -24 147 -4 39 -16 110 -24 159 -9
49 -15 95 -12 102 2 6 -1 17 -7 23 -9 9 -7 11 8 5 14 -5 10 4 -16 32 -20 21
-34 45 -32 52 3 6 -3 12 -12 12 -11 0 -15 -6 -11 -17 13 -43 47 -232 71 -393
39 -255 44 -300 45 -355 0 -27 8 -80 17 -118 l18 -67 46 2 c43 3 46 5 33 19
-8 9 -12 18 -9 21 3 3 -1 8 -10 11 -9 4 -15 1 -15 -7 0 -7 -6 -19 -14 -25 -11
-9 -15 -7 -20 13 -3 14 -2 35 3 48 10 27 41 57 41 40 0 -7 15 -10 39 -7 37 3
43 0 87 -48 26 -29 47 -54 46 -57 -1 -3 6 -5 16 -5 13 0 18 11 23 51 4 28 11
59 17 70 5 10 12 59 14 109 3 50 14 131 26 180 62 263 61 257 41 262 -16 5
-19 15 -19 64 0 33 2 59 5 59 24 0 71 -40 108 -92 80 -115 92 -138 78 -160
-10 -15 -8 -24 7 -46 11 -15 38 -63 60 -107 22 -44 56 -106 75 -137 19 -32 42
-88 51 -125 21 -85 45 -133 68 -133 21 0 22 4 8 28 -13 23 -40 109 -40 128 0
18 -44 107 -74 149 -11 16 -19 38 -18 47 2 12 -3 18 -14 18 -10 0 -15 3 -11 6
3 3 -14 43 -38 89 -40 76 -42 83 -27 99 10 9 12 16 5 16 -12 0 -90 139 -85
153 1 4 -10 12 -25 18 -26 10 -27 12 -11 23 22 16 12 29 -13 16 -11 -7 -20 -7
-24 0 -8 13 22 70 41 77 15 5 20 23 6 23 -4 0 -23 -16 -42 -35 -48 -47 -87
-47 -145 2 -24 20 -42 40 -39 45 3 4 0 8 -6 8 -6 0 -31 19 -55 41 -25 23 -45
37 -45 32z"/>
<path d="M1930 925 c-11 -13 -9 -15 11 -11 13 3 27 5 32 5 4 1 7 6 7 11 0 15
-36 12 -50 -5z"/>
<path d="M1953 903 c-23 -9 -14 -19 17 -19 18 0 30 5 30 13 0 13 -23 16 -47 6z"/>
<path d="M1956 814 c-69 -75 -62 -86 9 -14 45 46 76 66 59 39 -3 -6 -2 -21 4
-32 11 -24 29 -107 38 -177 3 -25 12 -83 20 -130 8 -47 17 -110 21 -140 3 -30
11 -61 17 -69 8 -11 8 -13 -1 -8 -8 5 -9 0 -3 -20 28 -91 30 -107 12 -126 -11
-13 -12 -17 -3 -15 7 2 15 -2 17 -7 2 -6 -23 -20 -56 -33 -38 -15 -61 -30 -65
-43 -10 -30 2 -35 15 -7 12 25 65 52 83 41 6 -3 7 -1 3 5 -10 16 17 15 32 0
13 -13 17 -59 5 -57 -20 3 -34 -2 -28 -11 3 -5 19 -10 34 -10 27 0 28 0 24 58
-2 31 -13 109 -23 172 -70 404 -83 483 -91 550 -16 122 -37 128 -123 34z"/>
<path d="M1191 586 c-8 -10 -6 -17 10 -32 12 -11 18 -26 15 -37 -5 -19 -4 -19
13 -1 11 12 14 20 7 23 -6 2 -19 11 -29 19 -17 15 -17 17 -1 22 11 4 14 9 7
13 -6 4 -16 1 -22 -7z"/>
<path d="M1260 512 c0 -5 17 -16 38 -24 32 -12 39 -13 39 -2 0 8 -10 16 -21
20 -12 3 -29 8 -38 10 -10 3 -18 1 -18 -4z"/>
<path d="M1866 464 c-9 -22 -7 -44 2 -44 5 0 8 10 8 23 -1 14 5 22 16 22 9 0
20 4 24 8 4 4 -4 7 -18 7 -14 0 -29 -7 -32 -16z"/>
<path d="M1833 392 c-13 -10 -19 -22 -15 -29 5 -8 14 -6 31 8 31 25 15 45 -16
21z"/>
</g>
</svg>
